G04*
G04 #@! TF.GenerationSoftware,Altium Limited,Altium Designer,22.6.1 (34)*
G04*
G04 Layer_Color=65535*
%FSLAX25Y25*%
%MOIN*%
G70*
G04*
G04 #@! TF.SameCoordinates,1C09E642-5389-4BCA-90F1-C158AF9FECEF*
G04*
G04*
G04 #@! TF.FilePolarity,Positive*
G04*
G01*
G75*
%ADD10C,0.00787*%
%ADD11C,0.02362*%
%ADD12C,0.00984*%
%ADD13C,0.01000*%
%ADD14C,0.00600*%
D10*
X118806Y44939D02*
G03*
X118806Y44939I-394J0D01*
G01*
X129730Y62815D02*
G03*
X129730Y62815I-394J0D01*
G01*
X109554Y33325D02*
Y36475D01*
X116246Y33325D02*
Y36475D01*
X117525Y61043D02*
X120675D01*
X117525Y53957D02*
X120675D01*
X66652Y112657D02*
Y116594D01*
X54448Y112657D02*
Y116594D01*
X68374Y47917D02*
Y75083D01*
X52626Y47917D02*
Y75083D01*
X68374D01*
X52626Y47917D02*
X68374D01*
X171181Y154357D02*
Y174043D01*
X158819D02*
X171181D01*
X158819Y154357D02*
Y174043D01*
Y154357D02*
X171181D01*
D11*
X57744Y51854D02*
G03*
X57744Y51854I-1181J0D01*
G01*
X168543Y158294D02*
G03*
X168543Y158294I-1181J0D01*
G01*
D12*
X52252Y42602D02*
G03*
X52252Y42602I-492J0D01*
G01*
X176713Y153354D02*
G03*
X176713Y153354I-492J0D01*
G01*
D13*
X36666Y248230D02*
X34000D01*
X36666Y250896D01*
Y251562D01*
X35999Y252228D01*
X34666D01*
X34000Y251562D01*
X40664D02*
X39998Y252228D01*
X38665D01*
X37999Y251562D01*
Y250896D01*
X38665Y250229D01*
X39998D01*
X40664Y249563D01*
Y248896D01*
X39998Y248230D01*
X38665D01*
X37999Y248896D01*
X48662Y251562D02*
X47995Y252228D01*
X46663D01*
X45996Y251562D01*
Y248896D01*
X46663Y248230D01*
X47995D01*
X48662Y248896D01*
X51994Y248230D02*
X50661D01*
X49995Y248896D01*
Y250229D01*
X50661Y250896D01*
X51994D01*
X52661Y250229D01*
Y249563D01*
X49995D01*
X53994Y248230D02*
X55326D01*
X54660D01*
Y252228D01*
X53994D01*
X57326Y248230D02*
X58659D01*
X57992D01*
Y252228D01*
X57326D01*
X64657D02*
Y249563D01*
X65990Y248230D01*
X67323Y249563D01*
Y252228D01*
X69322Y248230D02*
X70655D01*
X71321Y248896D01*
Y250229D01*
X70655Y250896D01*
X69322D01*
X68656Y250229D01*
Y248896D01*
X69322Y248230D01*
X72654D02*
X73987D01*
X73321D01*
Y252228D01*
X72654D01*
X76653Y251562D02*
Y250896D01*
X75986D01*
X77319D01*
X76653D01*
Y248896D01*
X77319Y248230D01*
X79985Y250896D02*
X81318D01*
X81985Y250229D01*
Y248230D01*
X79985D01*
X79319Y248896D01*
X79985Y249563D01*
X81985D01*
X84650Y246897D02*
X85317D01*
X85983Y247563D01*
Y250896D01*
X83984D01*
X83317Y250229D01*
Y248896D01*
X83984Y248230D01*
X85983D01*
X89315D02*
X87983D01*
X87316Y248896D01*
Y250229D01*
X87983Y250896D01*
X89315D01*
X89982Y250229D01*
Y249563D01*
X87316D01*
X34000Y243697D02*
Y239699D01*
X35999D01*
X36666Y240365D01*
Y241031D01*
X35999Y241698D01*
X34000D01*
X35999D01*
X36666Y242364D01*
Y243031D01*
X35999Y243697D01*
X34000D01*
X38665Y242364D02*
X39998D01*
X40664Y241698D01*
Y239699D01*
X38665D01*
X37999Y240365D01*
X38665Y241031D01*
X40664D01*
X41997Y239699D02*
X43330D01*
X42664D01*
Y243697D01*
X41997D01*
X45996Y242364D02*
X47329D01*
X47995Y241698D01*
Y239699D01*
X45996D01*
X45330Y240365D01*
X45996Y241031D01*
X47995D01*
X49328Y239699D02*
Y242364D01*
X51328D01*
X51994Y241698D01*
Y239699D01*
X55993Y242364D02*
X53994D01*
X53327Y241698D01*
Y240365D01*
X53994Y239699D01*
X55993D01*
X59325D02*
X57992D01*
X57326Y240365D01*
Y241698D01*
X57992Y242364D01*
X59325D01*
X59992Y241698D01*
Y241031D01*
X57326D01*
X61325Y242364D02*
Y239699D01*
Y241031D01*
X61991Y241698D01*
X62657Y242364D01*
X63324D01*
X69322Y241698D02*
X71988D01*
X36666Y235832D02*
X35999Y236499D01*
X34666D01*
X34000Y235832D01*
Y235166D01*
X34666Y234499D01*
X35999D01*
X36666Y233833D01*
Y233166D01*
X35999Y232500D01*
X34666D01*
X34000Y233166D01*
X38665Y232500D02*
X39998D01*
X40664Y233166D01*
Y234499D01*
X39998Y235166D01*
X38665D01*
X37999Y234499D01*
Y233166D01*
X38665Y232500D01*
X41997Y235166D02*
Y233166D01*
X42664Y232500D01*
X44663D01*
Y235166D01*
X45996D02*
Y232500D01*
Y233833D01*
X46663Y234499D01*
X47329Y235166D01*
X47995D01*
X52661D02*
X50661D01*
X49995Y234499D01*
Y233166D01*
X50661Y232500D01*
X52661D01*
X55993D02*
X54660D01*
X53994Y233166D01*
Y234499D01*
X54660Y235166D01*
X55993D01*
X56659Y234499D01*
Y233833D01*
X53994D01*
X64657Y236499D02*
X61991D01*
Y234499D01*
X63324D01*
X61991D01*
Y232500D01*
X66656D02*
X67989D01*
X68656Y233166D01*
Y234499D01*
X67989Y235166D01*
X66656D01*
X65990Y234499D01*
Y233166D01*
X66656Y232500D01*
X69988D02*
X71321D01*
X70655D01*
Y236499D01*
X69988D01*
X73321Y232500D02*
X74654D01*
X73987D01*
Y236499D01*
X73321D01*
X77319Y232500D02*
X78652D01*
X79319Y233166D01*
Y234499D01*
X78652Y235166D01*
X77319D01*
X76653Y234499D01*
Y233166D01*
X77319Y232500D01*
X80652Y235166D02*
Y233166D01*
X81318Y232500D01*
X81985Y233166D01*
X82651Y232500D01*
X83317Y233166D01*
Y235166D01*
X86650Y232500D02*
X85317D01*
X84650Y233166D01*
Y234499D01*
X85317Y235166D01*
X86650D01*
X87316Y234499D01*
Y233833D01*
X84650D01*
X88649Y235166D02*
Y232500D01*
Y233833D01*
X89315Y234499D01*
X89982Y235166D01*
X90648D01*
X209502Y142001D02*
Y147999D01*
X212501D01*
X213500Y146999D01*
Y145000D01*
X212501Y144000D01*
X209502D01*
X211501D02*
X213500Y142001D01*
X219498Y147999D02*
X215500D01*
Y145000D01*
X217499Y146000D01*
X218499D01*
X219498Y145000D01*
Y143001D01*
X218499Y142001D01*
X216499D01*
X215500Y143001D01*
X140000Y143999D02*
X139000Y144999D01*
X137001D01*
X136001Y143999D01*
Y140001D01*
X137001Y139001D01*
X139000D01*
X140000Y140001D01*
X141999Y139001D02*
X143999D01*
X142999D01*
Y144999D01*
X141999Y143999D01*
X197500Y181999D02*
X196501Y182999D01*
X194501D01*
X193502Y181999D01*
Y178001D01*
X194501Y177001D01*
X196501D01*
X197500Y178001D01*
X203498Y177001D02*
X199500D01*
X203498Y181000D01*
Y181999D01*
X202499Y182999D01*
X200499D01*
X199500Y181999D01*
X33000Y83999D02*
X32001Y84999D01*
X30001D01*
X29002Y83999D01*
Y80001D01*
X30001Y79001D01*
X32001D01*
X33000Y80001D01*
X35000Y83999D02*
X35999Y84999D01*
X37999D01*
X38998Y83999D01*
Y83000D01*
X37999Y82000D01*
X36999D01*
X37999D01*
X38998Y81000D01*
Y80001D01*
X37999Y79001D01*
X35999D01*
X35000Y80001D01*
X86000Y83999D02*
X85001Y84999D01*
X83001D01*
X82002Y83999D01*
Y80001D01*
X83001Y79001D01*
X85001D01*
X86000Y80001D01*
X90999Y79001D02*
Y84999D01*
X88000Y82000D01*
X91998D01*
X123000Y170999D02*
X122001Y171999D01*
X120001D01*
X119002Y170999D01*
Y167001D01*
X120001Y166001D01*
X122001D01*
X123000Y167001D01*
X125000Y171999D02*
X128998D01*
Y170999D01*
X125000Y167001D01*
Y166001D01*
X119501Y37999D02*
Y32001D01*
X122500D01*
X123500Y33001D01*
Y36999D01*
X122500Y37999D01*
X119501D01*
X125499Y32001D02*
X127499D01*
X126499D01*
Y37999D01*
X125499Y36999D01*
X13602Y97001D02*
X14602D01*
X15601Y98001D01*
Y102999D01*
X12602D01*
X11603Y102000D01*
Y100000D01*
X12602Y99001D01*
X15601D01*
X21599Y104999D02*
Y99001D01*
X18600D01*
X17601Y100000D01*
Y102000D01*
X18600Y102999D01*
X21599D01*
X23599Y102000D02*
X27597D01*
X25598Y103999D02*
Y100000D01*
X99602Y98301D02*
X100602D01*
X101601Y99301D01*
Y104299D01*
X98602D01*
X97603Y103300D01*
Y101300D01*
X98602Y100301D01*
X101601D01*
X107599Y106299D02*
Y100301D01*
X104600D01*
X103601Y101300D01*
Y103300D01*
X104600Y104299D01*
X107599D01*
X109599Y103300D02*
X113597D01*
X215902Y224699D02*
X214903Y225699D01*
X212903D01*
X211904Y224699D01*
Y220701D01*
X212903Y219701D01*
X214903D01*
X215902Y220701D01*
Y222700D01*
X213903D01*
X217902Y219701D02*
Y225699D01*
X221900Y219701D01*
Y225699D01*
X223900D02*
Y219701D01*
X226899D01*
X227898Y220701D01*
Y224699D01*
X226899Y225699D01*
X223900D01*
X233896Y219701D02*
X229898D01*
X233896Y223700D01*
Y224699D01*
X232897Y225699D01*
X230897D01*
X229898Y224699D01*
X14102Y63699D02*
X13103Y64699D01*
X11103D01*
X10104Y63699D01*
Y59701D01*
X11103Y58701D01*
X13103D01*
X14102Y59701D01*
Y61700D01*
X12103D01*
X16102Y58701D02*
Y64699D01*
X20100Y58701D01*
Y64699D01*
X22100D02*
Y58701D01*
X25099D01*
X26098Y59701D01*
Y63699D01*
X25099Y64699D01*
X22100D01*
X28098Y63699D02*
X29097Y64699D01*
X31097D01*
X32096Y63699D01*
Y62700D01*
X31097Y61700D01*
X30097D01*
X31097D01*
X32096Y60700D01*
Y59701D01*
X31097Y58701D01*
X29097D01*
X28098Y59701D01*
X196902Y71799D02*
X195903Y72799D01*
X193903D01*
X192904Y71799D01*
Y67801D01*
X193903Y66801D01*
X195903D01*
X196902Y67801D01*
Y69800D01*
X194903D01*
X198902Y66801D02*
Y72799D01*
X202900Y66801D01*
Y72799D01*
X204900D02*
Y66801D01*
X207899D01*
X208898Y67801D01*
Y71799D01*
X207899Y72799D01*
X204900D01*
X213897Y66801D02*
Y72799D01*
X210898Y69800D01*
X214896D01*
X84301Y205299D02*
X83302Y206299D01*
X81302D01*
X80303Y205299D01*
Y201301D01*
X81302Y200301D01*
X83302D01*
X84301Y201301D01*
Y203300D01*
X82302D01*
X86301Y200301D02*
Y206299D01*
X90299Y200301D01*
Y206299D01*
X92299D02*
Y200301D01*
X95298D01*
X96297Y201301D01*
Y205299D01*
X95298Y206299D01*
X92299D01*
X109003Y71499D02*
Y65501D01*
X113002D01*
X119000Y71499D02*
X115001D01*
Y65501D01*
X119000D01*
X115001Y68500D02*
X117001D01*
X120999Y71499D02*
Y65501D01*
X123998D01*
X124998Y66501D01*
Y70499D01*
X123998Y71499D01*
X120999D01*
X126997Y65501D02*
X128997D01*
X127997D01*
Y71499D01*
X126997Y70499D01*
X149702Y118401D02*
X151702D01*
X152701Y119401D01*
Y121400D01*
X151702Y122399D01*
X149702D01*
X148703Y121400D01*
Y119401D01*
X149702Y118401D01*
X155700Y122399D02*
X157700D01*
X158699Y121400D01*
Y118401D01*
X155700D01*
X154701Y119401D01*
X155700Y120400D01*
X158699D01*
X160699Y121400D02*
X164697D01*
X162698Y123399D02*
Y119401D01*
X166002Y210001D02*
X168002D01*
X169001Y211000D01*
Y213000D01*
X168002Y213999D01*
X166002D01*
X165003Y213000D01*
Y211000D01*
X166002Y210001D01*
X172000Y213999D02*
X174000D01*
X174999Y213000D01*
Y210001D01*
X172000D01*
X171001Y211000D01*
X172000Y212000D01*
X174999D01*
X176999Y213000D02*
X180997D01*
X134003Y207001D02*
Y212999D01*
X137002D01*
X138001Y211999D01*
Y210000D01*
X137002Y209000D01*
X134003D01*
X140001Y212999D02*
Y210000D01*
X141000Y209000D01*
X142000Y210000D01*
X143000Y209000D01*
X143999Y210000D01*
Y212999D01*
X145999Y209000D02*
Y212999D01*
X146998D01*
X147998Y211999D01*
Y209000D01*
Y211999D01*
X148998Y212999D01*
X149997Y211999D01*
Y209000D01*
X181002Y142001D02*
Y147999D01*
X184001D01*
X185000Y146999D01*
Y145000D01*
X184001Y144000D01*
X181002D01*
X183001D02*
X185000Y142001D01*
X187000Y146999D02*
X187999Y147999D01*
X189999D01*
X190998Y146999D01*
Y146000D01*
X189999Y145000D01*
X188999D01*
X189999D01*
X190998Y144000D01*
Y143001D01*
X189999Y142001D01*
X187999D01*
X187000Y143001D01*
X53500Y134700D02*
Y140698D01*
X56499D01*
X57499Y139698D01*
Y137699D01*
X56499Y136699D01*
X53500D01*
X55499D02*
X57499Y134700D01*
X59498D02*
X61497D01*
X60498D01*
Y140698D01*
X59498Y139698D01*
X130602Y79501D02*
Y85499D01*
X133601D01*
X134600Y84499D01*
Y82500D01*
X133601Y81500D01*
X130602D01*
X132601D02*
X134600Y79501D01*
X140598D02*
X136600D01*
X140598Y83500D01*
Y84499D01*
X139599Y85499D01*
X137599D01*
X136600Y84499D01*
X195502Y142001D02*
Y147999D01*
X198501D01*
X199500Y146999D01*
Y145000D01*
X198501Y144000D01*
X195502D01*
X197501D02*
X199500Y142001D01*
X204499D02*
Y147999D01*
X201500Y145000D01*
X205498D01*
X119002Y177501D02*
Y183499D01*
X122001D01*
X123000Y182499D01*
Y180500D01*
X122001Y179500D01*
X119002D01*
X121001D02*
X123000Y177501D01*
X128998Y183499D02*
X126999Y182499D01*
X125000Y180500D01*
Y178501D01*
X125999Y177501D01*
X127999D01*
X128998Y178501D01*
Y179500D01*
X127999Y180500D01*
X125000D01*
X152002Y60499D02*
X156001D01*
X154002D01*
Y54501D01*
X158000D02*
Y60499D01*
X160999D01*
X161999Y59499D01*
Y57500D01*
X160999Y56500D01*
X158000D01*
X163998Y54501D02*
X165998D01*
X164998D01*
Y60499D01*
X163998Y59499D01*
X41501Y54499D02*
Y49501D01*
X42501Y48501D01*
X44500D01*
X45500Y49501D01*
Y54499D01*
X47499Y48501D02*
X49499D01*
X48499D01*
Y54499D01*
X47499Y53499D01*
X160002Y151399D02*
Y146401D01*
X161001Y145401D01*
X163001D01*
X164000Y146401D01*
Y151399D01*
X169998Y145401D02*
X166000D01*
X169998Y149400D01*
Y150399D01*
X168999Y151399D01*
X166999D01*
X166000Y150399D01*
D14*
X34400Y227976D02*
Y224977D01*
X36399D01*
X37899D02*
X38899D01*
X39398Y225477D01*
Y226476D01*
X38899Y226976D01*
X37899D01*
X37399Y226476D01*
Y225477D01*
X37899Y224977D01*
X41398Y223977D02*
X41898D01*
X42397Y224477D01*
Y226976D01*
X40898D01*
X40398Y226476D01*
Y225477D01*
X40898Y224977D01*
X42397D01*
X43897Y226976D02*
X44897D01*
X45396Y226476D01*
Y224977D01*
X43897D01*
X43397Y225477D01*
X43897Y225976D01*
X45396D01*
X46396Y224977D02*
Y226976D01*
X47896D01*
X48395Y226476D01*
Y224977D01*
X54394Y227476D02*
X53894Y227976D01*
X52894D01*
X52394Y227476D01*
Y226976D01*
X52894Y226476D01*
X53894D01*
X54394Y225976D01*
Y225477D01*
X53894Y224977D01*
X52894D01*
X52394Y225477D01*
X55893Y227476D02*
Y226976D01*
X55393D01*
X56393D01*
X55893D01*
Y225477D01*
X56393Y224977D01*
X58392Y226976D02*
X59392D01*
X59892Y226476D01*
Y224977D01*
X58392D01*
X57892Y225477D01*
X58392Y225976D01*
X59892D01*
X61391Y224977D02*
Y227476D01*
Y226476D01*
X60891D01*
X61891D01*
X61391D01*
Y227476D01*
X61891Y227976D01*
X63890Y224977D02*
Y227476D01*
Y226476D01*
X63391D01*
X64390D01*
X63890D01*
Y227476D01*
X64390Y227976D01*
X66390Y224977D02*
X67389D01*
X67889Y225477D01*
Y226476D01*
X67389Y226976D01*
X66390D01*
X65890Y226476D01*
Y225477D01*
X66390Y224977D01*
X68889Y226976D02*
Y224977D01*
Y225976D01*
X69389Y226476D01*
X69889Y226976D01*
X70388D01*
X73887Y227976D02*
Y224977D01*
X72388D01*
X71888Y225477D01*
Y226476D01*
X72388Y226976D01*
X73887D01*
X34400Y221937D02*
Y218938D01*
X35400Y219938D01*
X36399Y218938D01*
Y221937D01*
X37399Y218938D02*
X38399D01*
X37899D01*
Y220938D01*
X37399D01*
X39898Y218938D02*
X40898D01*
X40398D01*
Y221937D01*
X39898D01*
X42397Y218938D02*
X43397D01*
X42897D01*
Y221937D01*
X42397D01*
X44897Y218938D02*
X45896D01*
X45396D01*
Y220938D01*
X44897D01*
X47896D02*
X48895D01*
X49395Y220438D01*
Y218938D01*
X47896D01*
X47396Y219438D01*
X47896Y219938D01*
X49395D01*
X50395Y218938D02*
Y220938D01*
X50895D01*
X51394Y220438D01*
Y218938D01*
Y220438D01*
X51894Y220938D01*
X52394Y220438D01*
Y218938D01*
X56393Y221937D02*
Y218938D01*
X58392D01*
X59392Y220938D02*
Y219438D01*
X59892Y218938D01*
X61391D01*
Y218438D01*
X60891Y217938D01*
X60392D01*
X61391Y218938D02*
Y220938D01*
X62391Y218938D02*
Y220938D01*
X63890D01*
X64390Y220438D01*
Y218938D01*
X67389Y220938D02*
X65890D01*
X65390Y220438D01*
Y219438D01*
X65890Y218938D01*
X67389D01*
X68389Y221937D02*
Y218938D01*
Y220438D01*
X68889Y220938D01*
X69889D01*
X70388Y220438D01*
Y218938D01*
X34400Y212900D02*
Y215899D01*
X35400Y214899D01*
X36399Y215899D01*
Y212900D01*
X37899Y214899D02*
X38899D01*
X39398Y214399D01*
Y212900D01*
X37899D01*
X37399Y213400D01*
X37899Y213899D01*
X39398D01*
X40398Y214899D02*
Y212900D01*
Y213899D01*
X40898Y214399D01*
X41398Y214899D01*
X41898D01*
X43397Y212900D02*
X44397D01*
X43897D01*
Y214899D01*
X43397D01*
X46396Y212900D02*
X47396D01*
X47896Y213400D01*
Y214399D01*
X47396Y214899D01*
X46396D01*
X45896Y214399D01*
Y213400D01*
X46396Y212900D01*
X51894Y215899D02*
Y212900D01*
X53894D01*
X55393D02*
X56393D01*
X56893Y213400D01*
Y214399D01*
X56393Y214899D01*
X55393D01*
X54893Y214399D01*
Y213400D01*
X55393Y212900D01*
X57892Y211900D02*
Y214899D01*
X59392D01*
X59892Y214399D01*
Y213400D01*
X59392Y212900D01*
X57892D01*
X62391D02*
X61391D01*
X60891Y213400D01*
Y214399D01*
X61391Y214899D01*
X62391D01*
X62891Y214399D01*
Y213899D01*
X60891D01*
X63890Y214899D02*
X65890D01*
X63890Y212900D01*
X65890D01*
X76800Y242599D02*
Y240600D01*
Y241600D01*
X77300Y242099D01*
X77800Y242599D01*
X78299D01*
X81299Y240600D02*
X80299D01*
X79799Y241100D01*
Y242099D01*
X80299Y242599D01*
X81299D01*
X81798Y242099D01*
Y241600D01*
X79799D01*
X82798Y242599D02*
X83798Y240600D01*
X84797Y242599D01*
X85797Y240600D02*
Y241100D01*
X86297D01*
Y240600D01*
X85797D01*
X91295D02*
X92295D01*
X91795D01*
Y243599D01*
X91295Y243099D01*
M02*
