G04*
G04 #@! TF.GenerationSoftware,Altium Limited,Altium Designer,22.6.1 (34)*
G04*
G04 Layer_Color=255*
%FSLAX25Y25*%
%MOIN*%
G70*
G04*
G04 #@! TF.SameCoordinates,B879EA27-71AA-45A2-974F-3B39489FC624*
G04*
G04*
G04 #@! TF.FilePolarity,Positive*
G04*
G01*
G75*
G04:AMPARAMS|DCode=15|XSize=66.93mil|YSize=45.28mil|CornerRadius=5.66mil|HoleSize=0mil|Usage=FLASHONLY|Rotation=180.000|XOffset=0mil|YOffset=0mil|HoleType=Round|Shape=RoundedRectangle|*
%AMROUNDEDRECTD15*
21,1,0.06693,0.03396,0,0,180.0*
21,1,0.05561,0.04528,0,0,180.0*
1,1,0.01132,-0.02781,0.01698*
1,1,0.01132,0.02781,0.01698*
1,1,0.01132,0.02781,-0.01698*
1,1,0.01132,-0.02781,-0.01698*
%
%ADD15ROUNDEDRECTD15*%
G04:AMPARAMS|DCode=16|XSize=66.93mil|YSize=51.18mil|CornerRadius=6.4mil|HoleSize=0mil|Usage=FLASHONLY|Rotation=270.000|XOffset=0mil|YOffset=0mil|HoleType=Round|Shape=RoundedRectangle|*
%AMROUNDEDRECTD16*
21,1,0.06693,0.03839,0,0,270.0*
21,1,0.05413,0.05118,0,0,270.0*
1,1,0.01280,-0.01919,-0.02707*
1,1,0.01280,-0.01919,0.02707*
1,1,0.01280,0.01919,0.02707*
1,1,0.01280,0.01919,-0.02707*
%
%ADD16ROUNDEDRECTD16*%
G04:AMPARAMS|DCode=17|XSize=66.93mil|YSize=51.18mil|CornerRadius=6.4mil|HoleSize=0mil|Usage=FLASHONLY|Rotation=0.000|XOffset=0mil|YOffset=0mil|HoleType=Round|Shape=RoundedRectangle|*
%AMROUNDEDRECTD17*
21,1,0.06693,0.03839,0,0,0.0*
21,1,0.05413,0.05118,0,0,0.0*
1,1,0.01280,0.02707,-0.01919*
1,1,0.01280,-0.02707,-0.01919*
1,1,0.01280,-0.02707,0.01919*
1,1,0.01280,0.02707,0.01919*
%
%ADD17ROUNDEDRECTD17*%
G04:AMPARAMS|DCode=18|XSize=82.68mil|YSize=55.12mil|CornerRadius=6.89mil|HoleSize=0mil|Usage=FLASHONLY|Rotation=0.000|XOffset=0mil|YOffset=0mil|HoleType=Round|Shape=RoundedRectangle|*
%AMROUNDEDRECTD18*
21,1,0.08268,0.04134,0,0,0.0*
21,1,0.06890,0.05512,0,0,0.0*
1,1,0.01378,0.03445,-0.02067*
1,1,0.01378,-0.03445,-0.02067*
1,1,0.01378,-0.03445,0.02067*
1,1,0.01378,0.03445,0.02067*
%
%ADD18ROUNDEDRECTD18*%
G04:AMPARAMS|DCode=19|XSize=180mil|YSize=180mil|CornerRadius=13.5mil|HoleSize=0mil|Usage=FLASHONLY|Rotation=0.000|XOffset=0mil|YOffset=0mil|HoleType=Round|Shape=RoundedRectangle|*
%AMROUNDEDRECTD19*
21,1,0.18000,0.15300,0,0,0.0*
21,1,0.15300,0.18000,0,0,0.0*
1,1,0.02700,0.07650,-0.07650*
1,1,0.02700,-0.07650,-0.07650*
1,1,0.02700,-0.07650,0.07650*
1,1,0.02700,0.07650,0.07650*
%
%ADD19ROUNDEDRECTD19*%
G04:AMPARAMS|DCode=20|XSize=82.68mil|YSize=59.06mil|CornerRadius=7.38mil|HoleSize=0mil|Usage=FLASHONLY|Rotation=270.000|XOffset=0mil|YOffset=0mil|HoleType=Round|Shape=RoundedRectangle|*
%AMROUNDEDRECTD20*
21,1,0.08268,0.04429,0,0,270.0*
21,1,0.06791,0.05906,0,0,270.0*
1,1,0.01476,-0.02215,-0.03396*
1,1,0.01476,-0.02215,0.03396*
1,1,0.01476,0.02215,0.03396*
1,1,0.01476,0.02215,-0.03396*
%
%ADD20ROUNDEDRECTD20*%
G04:AMPARAMS|DCode=21|XSize=180mil|YSize=180mil|CornerRadius=13.5mil|HoleSize=0mil|Usage=FLASHONLY|Rotation=90.000|XOffset=0mil|YOffset=0mil|HoleType=Round|Shape=RoundedRectangle|*
%AMROUNDEDRECTD21*
21,1,0.18000,0.15300,0,0,90.0*
21,1,0.15300,0.18000,0,0,90.0*
1,1,0.02700,0.07650,0.07650*
1,1,0.02700,0.07650,-0.07650*
1,1,0.02700,-0.07650,-0.07650*
1,1,0.02700,-0.07650,0.07650*
%
%ADD21ROUNDEDRECTD21*%
G04:AMPARAMS|DCode=22|XSize=137.8mil|YSize=120.08mil|CornerRadius=9.01mil|HoleSize=0mil|Usage=FLASHONLY|Rotation=180.000|XOffset=0mil|YOffset=0mil|HoleType=Round|Shape=RoundedRectangle|*
%AMROUNDEDRECTD22*
21,1,0.13780,0.10207,0,0,180.0*
21,1,0.11978,0.12008,0,0,180.0*
1,1,0.01801,-0.05989,0.05103*
1,1,0.01801,0.05989,0.05103*
1,1,0.01801,0.05989,-0.05103*
1,1,0.01801,-0.05989,-0.05103*
%
%ADD22ROUNDEDRECTD22*%
G04:AMPARAMS|DCode=23|XSize=137mil|YSize=120mil|CornerRadius=9mil|HoleSize=0mil|Usage=FLASHONLY|Rotation=180.000|XOffset=0mil|YOffset=0mil|HoleType=Round|Shape=RoundedRectangle|*
%AMROUNDEDRECTD23*
21,1,0.13700,0.10200,0,0,180.0*
21,1,0.11900,0.12000,0,0,180.0*
1,1,0.01800,-0.05950,0.05100*
1,1,0.01800,0.05950,0.05100*
1,1,0.01800,0.05950,-0.05100*
1,1,0.01800,-0.05950,-0.05100*
%
%ADD23ROUNDEDRECTD23*%
G04:AMPARAMS|DCode=24|XSize=66.93mil|YSize=45.28mil|CornerRadius=5.66mil|HoleSize=0mil|Usage=FLASHONLY|Rotation=90.000|XOffset=0mil|YOffset=0mil|HoleType=Round|Shape=RoundedRectangle|*
%AMROUNDEDRECTD24*
21,1,0.06693,0.03396,0,0,90.0*
21,1,0.05561,0.04528,0,0,90.0*
1,1,0.01132,0.01698,0.02781*
1,1,0.01132,0.01698,-0.02781*
1,1,0.01132,-0.01698,-0.02781*
1,1,0.01132,-0.01698,0.02781*
%
%ADD24ROUNDEDRECTD24*%
G04:AMPARAMS|DCode=25|XSize=118.11mil|YSize=118.11mil|CornerRadius=14.76mil|HoleSize=0mil|Usage=FLASHONLY|Rotation=90.000|XOffset=0mil|YOffset=0mil|HoleType=Round|Shape=RoundedRectangle|*
%AMROUNDEDRECTD25*
21,1,0.11811,0.08858,0,0,90.0*
21,1,0.08858,0.11811,0,0,90.0*
1,1,0.02953,0.04429,0.04429*
1,1,0.02953,0.04429,-0.04429*
1,1,0.02953,-0.04429,-0.04429*
1,1,0.02953,-0.04429,0.04429*
%
%ADD25ROUNDEDRECTD25*%
%ADD26O,0.03150X0.07480*%
%ADD27O,0.07284X0.02362*%
D15*
X211200Y161632D02*
D03*
Y153168D02*
D03*
X187700Y161632D02*
D03*
Y153168D02*
D03*
X125600Y86732D02*
D03*
Y78268D02*
D03*
X199700Y161632D02*
D03*
Y153168D02*
D03*
D16*
X135527Y150400D02*
D03*
X144582D02*
D03*
X179172Y180225D02*
D03*
X188228D02*
D03*
X133672Y169400D02*
D03*
X142728D02*
D03*
D17*
X44000Y80028D02*
D03*
Y70972D02*
D03*
X77000Y70972D02*
D03*
Y80028D02*
D03*
D18*
X112900Y28601D02*
D03*
Y41199D02*
D03*
D19*
X38900Y101300D02*
D03*
X85500Y101700D02*
D03*
X221400Y206700D02*
D03*
X19100Y45200D02*
D03*
X208400Y51300D02*
D03*
X88300Y189800D02*
D03*
X142432Y195400D02*
D03*
D20*
X112801Y57500D02*
D03*
X125399D02*
D03*
D21*
X155700Y133900D02*
D03*
X172700Y197900D02*
D03*
D22*
X60550Y124566D02*
D03*
D23*
Y104684D02*
D03*
D24*
X142432Y178900D02*
D03*
X133968D02*
D03*
D25*
X143100Y57500D02*
D03*
D26*
X65500Y80398D02*
D03*
X60500D02*
D03*
X55500D02*
D03*
X65500Y42602D02*
D03*
X60500D02*
D03*
X55500D02*
D03*
D27*
X176220Y161700D02*
D03*
Y156700D02*
D03*
Y166700D02*
D03*
Y171700D02*
D03*
X153780D02*
D03*
Y166700D02*
D03*
Y161700D02*
D03*
Y156700D02*
D03*
M02*
