%TF.GenerationSoftware,Altium Limited,Altium Designer,22.6.1 (34)*%
G04 Layer_Physical_Order=1*
G04 Layer_Color=255*
%FSLAX26Y26*%
%MOIN*%
%TF.SameCoordinates,875EB05E-A6AF-4184-B243-C0806E1F30E9*%
%TF.FilePolarity,Positive*%
%TF.FileFunction,Copper,L1,Top,Signal*%
%TF.Part,Single*%
G01*
G75*
%TA.AperFunction,SMDPad,CuDef*%
G04:AMPARAMS|DCode=10|XSize=66.929mil|YSize=45.276mil|CornerRadius=5.659mil|HoleSize=0mil|Usage=FLASHONLY|Rotation=180.000|XOffset=0mil|YOffset=0mil|HoleType=Round|Shape=RoundedRectangle|*
%AMROUNDEDRECTD10*
21,1,0.066929,0.033957,0,0,180.0*
21,1,0.055610,0.045276,0,0,180.0*
1,1,0.011319,-0.027805,0.016978*
1,1,0.011319,0.027805,0.016978*
1,1,0.011319,0.027805,-0.016978*
1,1,0.011319,-0.027805,-0.016978*
%
%ADD10ROUNDEDRECTD10*%
G04:AMPARAMS|DCode=11|XSize=66.929mil|YSize=51.181mil|CornerRadius=6.398mil|HoleSize=0mil|Usage=FLASHONLY|Rotation=270.000|XOffset=0mil|YOffset=0mil|HoleType=Round|Shape=RoundedRectangle|*
%AMROUNDEDRECTD11*
21,1,0.066929,0.038386,0,0,270.0*
21,1,0.054134,0.051181,0,0,270.0*
1,1,0.012795,-0.019193,-0.027067*
1,1,0.012795,-0.019193,0.027067*
1,1,0.012795,0.019193,0.027067*
1,1,0.012795,0.019193,-0.027067*
%
%ADD11ROUNDEDRECTD11*%
G04:AMPARAMS|DCode=12|XSize=66.929mil|YSize=51.181mil|CornerRadius=6.398mil|HoleSize=0mil|Usage=FLASHONLY|Rotation=0.000|XOffset=0mil|YOffset=0mil|HoleType=Round|Shape=RoundedRectangle|*
%AMROUNDEDRECTD12*
21,1,0.066929,0.038386,0,0,0.0*
21,1,0.054134,0.051181,0,0,0.0*
1,1,0.012795,0.027067,-0.019193*
1,1,0.012795,-0.027067,-0.019193*
1,1,0.012795,-0.027067,0.019193*
1,1,0.012795,0.027067,0.019193*
%
%ADD12ROUNDEDRECTD12*%
G04:AMPARAMS|DCode=13|XSize=82.677mil|YSize=55.118mil|CornerRadius=6.89mil|HoleSize=0mil|Usage=FLASHONLY|Rotation=0.000|XOffset=0mil|YOffset=0mil|HoleType=Round|Shape=RoundedRectangle|*
%AMROUNDEDRECTD13*
21,1,0.082677,0.041339,0,0,0.0*
21,1,0.068898,0.055118,0,0,0.0*
1,1,0.013780,0.034449,-0.020669*
1,1,0.013780,-0.034449,-0.020669*
1,1,0.013780,-0.034449,0.020669*
1,1,0.013780,0.034449,0.020669*
%
%ADD13ROUNDEDRECTD13*%
G04:AMPARAMS|DCode=14|XSize=180mil|YSize=180mil|CornerRadius=13.5mil|HoleSize=0mil|Usage=FLASHONLY|Rotation=0.000|XOffset=0mil|YOffset=0mil|HoleType=Round|Shape=RoundedRectangle|*
%AMROUNDEDRECTD14*
21,1,0.180000,0.153000,0,0,0.0*
21,1,0.153000,0.180000,0,0,0.0*
1,1,0.027000,0.076500,-0.076500*
1,1,0.027000,-0.076500,-0.076500*
1,1,0.027000,-0.076500,0.076500*
1,1,0.027000,0.076500,0.076500*
%
%ADD14ROUNDEDRECTD14*%
G04:AMPARAMS|DCode=15|XSize=82.677mil|YSize=59.055mil|CornerRadius=7.382mil|HoleSize=0mil|Usage=FLASHONLY|Rotation=270.000|XOffset=0mil|YOffset=0mil|HoleType=Round|Shape=RoundedRectangle|*
%AMROUNDEDRECTD15*
21,1,0.082677,0.044291,0,0,270.0*
21,1,0.067913,0.059055,0,0,270.0*
1,1,0.014764,-0.022146,-0.033957*
1,1,0.014764,-0.022146,0.033957*
1,1,0.014764,0.022146,0.033957*
1,1,0.014764,0.022146,-0.033957*
%
%ADD15ROUNDEDRECTD15*%
G04:AMPARAMS|DCode=16|XSize=180mil|YSize=180mil|CornerRadius=13.5mil|HoleSize=0mil|Usage=FLASHONLY|Rotation=90.000|XOffset=0mil|YOffset=0mil|HoleType=Round|Shape=RoundedRectangle|*
%AMROUNDEDRECTD16*
21,1,0.180000,0.153000,0,0,90.0*
21,1,0.153000,0.180000,0,0,90.0*
1,1,0.027000,0.076500,0.076500*
1,1,0.027000,0.076500,-0.076500*
1,1,0.027000,-0.076500,-0.076500*
1,1,0.027000,-0.076500,0.076500*
%
%ADD16ROUNDEDRECTD16*%
G04:AMPARAMS|DCode=17|XSize=137.795mil|YSize=120.079mil|CornerRadius=9.006mil|HoleSize=0mil|Usage=FLASHONLY|Rotation=180.000|XOffset=0mil|YOffset=0mil|HoleType=Round|Shape=RoundedRectangle|*
%AMROUNDEDRECTD17*
21,1,0.137795,0.102067,0,0,180.0*
21,1,0.119784,0.120079,0,0,180.0*
1,1,0.018012,-0.059892,0.051033*
1,1,0.018012,0.059892,0.051033*
1,1,0.018012,0.059892,-0.051033*
1,1,0.018012,-0.059892,-0.051033*
%
%ADD17ROUNDEDRECTD17*%
G04:AMPARAMS|DCode=18|XSize=137mil|YSize=120mil|CornerRadius=9mil|HoleSize=0mil|Usage=FLASHONLY|Rotation=180.000|XOffset=0mil|YOffset=0mil|HoleType=Round|Shape=RoundedRectangle|*
%AMROUNDEDRECTD18*
21,1,0.137000,0.102000,0,0,180.0*
21,1,0.119000,0.120000,0,0,180.0*
1,1,0.018000,-0.059500,0.051000*
1,1,0.018000,0.059500,0.051000*
1,1,0.018000,0.059500,-0.051000*
1,1,0.018000,-0.059500,-0.051000*
%
%ADD18ROUNDEDRECTD18*%
G04:AMPARAMS|DCode=19|XSize=66.929mil|YSize=45.276mil|CornerRadius=5.659mil|HoleSize=0mil|Usage=FLASHONLY|Rotation=90.000|XOffset=0mil|YOffset=0mil|HoleType=Round|Shape=RoundedRectangle|*
%AMROUNDEDRECTD19*
21,1,0.066929,0.033957,0,0,90.0*
21,1,0.055610,0.045276,0,0,90.0*
1,1,0.011319,0.016978,0.027805*
1,1,0.011319,0.016978,-0.027805*
1,1,0.011319,-0.016978,-0.027805*
1,1,0.011319,-0.016978,0.027805*
%
%ADD19ROUNDEDRECTD19*%
G04:AMPARAMS|DCode=20|XSize=118.11mil|YSize=118.11mil|CornerRadius=14.764mil|HoleSize=0mil|Usage=FLASHONLY|Rotation=90.000|XOffset=0mil|YOffset=0mil|HoleType=Round|Shape=RoundedRectangle|*
%AMROUNDEDRECTD20*
21,1,0.118110,0.088583,0,0,90.0*
21,1,0.088583,0.118110,0,0,90.0*
1,1,0.029528,0.044291,0.044291*
1,1,0.029528,0.044291,-0.044291*
1,1,0.029528,-0.044291,-0.044291*
1,1,0.029528,-0.044291,0.044291*
%
%ADD20ROUNDEDRECTD20*%
%ADD21O,0.031496X0.074803*%
%ADD22O,0.072835X0.023622*%
%TA.AperFunction,Conductor*%
%ADD23C,0.030000*%
%TA.AperFunction,ViaPad*%
%ADD24C,0.050000*%
G36*
X2229804Y2431000D02*
X2230580Y2427098D01*
X2232790Y2423790D01*
X2324790Y2331790D01*
X2328098Y2329580D01*
X2332000Y2328804D01*
X2470000D01*
Y270196D01*
X2331500D01*
X2327598Y269420D01*
X2324290Y267210D01*
X2232290Y175210D01*
X2230080Y171902D01*
X2229304Y168000D01*
Y30000D01*
X270196D01*
Y169500D01*
X269420Y173402D01*
X267210Y176710D01*
X175210Y268710D01*
X171902Y270920D01*
X168000Y271696D01*
X30000D01*
Y2329804D01*
X169000D01*
X172902Y2330580D01*
X176210Y2332790D01*
X268210Y2424790D01*
X270420Y2428098D01*
X271196Y2432000D01*
Y2570000D01*
X2229804D01*
Y2431000D01*
D02*
G37*
%LPC*%
G36*
X1780000Y2161196D02*
X1636000D01*
X1632098Y2160420D01*
X1628790Y2158210D01*
X1594791Y2124210D01*
X1590484Y2120707D01*
X1585000Y2120196D01*
X1581098Y2119420D01*
X1577790Y2117210D01*
X1522790Y2062210D01*
X1520580Y2058902D01*
X1501375Y2054476D01*
X1500822Y2054460D01*
X1347822D01*
X1338653Y2052637D01*
X1330879Y2047443D01*
X1325686Y2039669D01*
X1323862Y2030500D01*
Y1877500D01*
X1325686Y1868331D01*
X1330879Y1860557D01*
X1338653Y1855363D01*
X1347822Y1853540D01*
X1398832D01*
Y1829951D01*
X1396054Y1828095D01*
X1392593Y1822915D01*
X1391377Y1816805D01*
Y1761195D01*
X1392593Y1755085D01*
X1393713Y1753409D01*
X1395922Y1748727D01*
X1393728Y1729098D01*
X1392637Y1727465D01*
X1391364Y1721067D01*
Y1666933D01*
X1392248Y1662490D01*
X1391574Y1658751D01*
X1381891Y1642490D01*
X1327000D01*
X1317245Y1640550D01*
X1308976Y1635024D01*
X1237976Y1564024D01*
X1232450Y1555755D01*
X1230510Y1546000D01*
Y951734D01*
X1226538D01*
X1222637Y950958D01*
X1219329Y948748D01*
X1057790Y787210D01*
X1055580Y783902D01*
X1054804Y780000D01*
X1054804Y437482D01*
X1010992D01*
X1001237Y435541D01*
X992968Y430016D01*
X878442Y315490D01*
X605558D01*
X580490Y340558D01*
Y400721D01*
X580970Y404370D01*
Y447677D01*
X593355Y462363D01*
X597423Y464804D01*
X685000D01*
X688902Y465580D01*
X692210Y467790D01*
X694420Y471098D01*
X695196Y475000D01*
Y747706D01*
X714574Y752804D01*
X813000D01*
X816902Y753580D01*
X820210Y755790D01*
X981210Y916790D01*
X983420Y920098D01*
X984196Y924000D01*
Y1130000D01*
X983420Y1133902D01*
X981210Y1137210D01*
X960210Y1158210D01*
X956902Y1160420D01*
X953000Y1161196D01*
X735196D01*
Y1208988D01*
X734420Y1212890D01*
X733348Y1214494D01*
X734420Y1216098D01*
X735196Y1220000D01*
X735196Y1550000D01*
X734419Y1553902D01*
X732209Y1557210D01*
X688210Y1601209D01*
X684902Y1603420D01*
X681000Y1604196D01*
X564000Y1604196D01*
X560098Y1603420D01*
X556790Y1601209D01*
X507790Y1552210D01*
X505580Y1548902D01*
X504804Y1545000D01*
Y1203305D01*
X505285Y1200888D01*
X504738Y1200779D01*
X501431Y1198569D01*
X471431Y1168569D01*
X469220Y1165262D01*
X468810Y1163196D01*
X293000D01*
X289098Y1162420D01*
X285790Y1160210D01*
X241790Y1116210D01*
X239580Y1112902D01*
X238804Y1109000D01*
Y856000D01*
X239580Y852098D01*
X241790Y848790D01*
X334790Y755790D01*
X338098Y753580D01*
X342000Y752804D01*
X495426D01*
X514804Y747706D01*
Y475000D01*
X515580Y471098D01*
X517790Y467790D01*
X521098Y465580D01*
X526399Y458857D01*
X529030Y447677D01*
Y404370D01*
X529510Y400721D01*
Y330000D01*
X531451Y320245D01*
X536976Y311976D01*
X576976Y271976D01*
X585245Y266450D01*
X595000Y264510D01*
X889000D01*
X898755Y266450D01*
X907024Y271976D01*
X1021550Y386502D01*
X1054804D01*
Y361538D01*
X1055580Y357637D01*
X1057790Y354329D01*
X1061098Y352119D01*
X1065000Y351343D01*
X1447667D01*
X1451569Y352119D01*
X1454876Y354329D01*
X1562210Y461662D01*
X1564420Y464970D01*
X1565196Y468872D01*
X1565196Y758077D01*
X1564877Y759677D01*
X1564674Y761298D01*
X1564492Y761618D01*
X1564420Y761979D01*
X1563513Y763336D01*
X1562705Y764754D01*
X1403705Y948216D01*
X1403414Y948442D01*
X1403210Y948748D01*
X1401852Y949655D01*
X1400563Y950656D01*
X1400208Y950754D01*
X1399902Y950958D01*
X1398301Y951277D01*
X1396726Y951708D01*
X1396361Y951663D01*
X1396000Y951734D01*
X1281490D01*
Y1535442D01*
X1337558Y1591510D01*
X1423960D01*
X1431613Y1573033D01*
X1404790Y1546210D01*
X1402580Y1542902D01*
X1401804Y1539000D01*
Y1209000D01*
X1402580Y1205098D01*
X1404790Y1201790D01*
X1419790Y1186790D01*
X1423098Y1184580D01*
X1427000Y1183804D01*
X1642000D01*
X1645902Y1184580D01*
X1649210Y1186790D01*
X1705876Y1243457D01*
X1708086Y1246765D01*
X1708862Y1250667D01*
Y1281633D01*
X1709624Y1284011D01*
X1728862Y1300804D01*
X1995000D01*
X1998902Y1301580D01*
X2002210Y1303790D01*
X2065210Y1366790D01*
X2067420Y1370098D01*
X2068196Y1374000D01*
Y1563804D01*
X2152000D01*
X2155902Y1564580D01*
X2159210Y1566790D01*
X2182210Y1589790D01*
X2184420Y1593098D01*
X2185196Y1597000D01*
Y1688000D01*
X2184420Y1691902D01*
X2182210Y1695210D01*
X2132210Y1745210D01*
X2128902Y1747420D01*
X2125000Y1748196D01*
X1850678D01*
X1838882Y1759907D01*
X1836196Y1764155D01*
Y2105000D01*
X1835420Y2108902D01*
X1833210Y2112210D01*
X1787210Y2158210D01*
X1783902Y2160420D01*
X1780000Y2161196D01*
D02*
G37*
%LPD*%
G36*
X1826000Y2105000D02*
Y1729000D01*
X1799000Y1702000D01*
X1722000D01*
Y1750714D01*
X1703286D01*
X1602000Y1852000D01*
Y2117000D01*
X1636000Y2151000D01*
X1780000D01*
X1826000Y2105000D01*
D02*
G37*
G36*
X1577000Y1589000D02*
X1577000Y1543000D01*
X1606335Y1513665D01*
X1606580Y1512432D01*
X1608790Y1509124D01*
X1698667Y1419248D01*
X1698667Y1250667D01*
X1642000Y1194000D01*
X1427000D01*
X1412000Y1209000D01*
Y1539000D01*
X1462000Y1589000D01*
X1577000Y1589000D01*
D02*
G37*
G36*
X725000Y1550000D02*
X725000Y1220000D01*
X723982Y1218982D01*
X721098Y1218408D01*
X717790Y1216198D01*
X686788Y1185196D01*
X533109D01*
X515000Y1203305D01*
Y1545000D01*
X564000Y1594000D01*
X681000Y1594000D01*
X725000Y1550000D01*
D02*
G37*
G36*
X974000Y1130000D02*
Y924000D01*
X813000Y763000D01*
X636000D01*
Y856984D01*
X694970Y915030D01*
Y1112666D01*
X695156Y1112790D01*
X732210Y1149844D01*
X732982Y1151000D01*
X953000D01*
X974000Y1130000D01*
D02*
G37*
G36*
X678000Y930000D02*
X624383Y876383D01*
Y763000D01*
X586000D01*
Y877000D01*
X533000Y930000D01*
Y1109804D01*
X678000D01*
Y930000D01*
D02*
G37*
G36*
X512790Y1112790D02*
X515000Y1111314D01*
Y915000D01*
X574000Y856000D01*
Y763000D01*
X342000D01*
X249000Y856000D01*
Y1109000D01*
X293000Y1153000D01*
X472581D01*
X512790Y1112790D01*
D02*
G37*
%LPC*%
G36*
X605000Y1059274D02*
X595245Y1057333D01*
X586976Y1051808D01*
X581976Y1046808D01*
X576451Y1038538D01*
X574510Y1028784D01*
X576451Y1019029D01*
X581976Y1010760D01*
X590245Y1005234D01*
X600000Y1003294D01*
X609755Y1005234D01*
X618024Y1010760D01*
X623024Y1015760D01*
X628549Y1024029D01*
X630490Y1033784D01*
X628549Y1043538D01*
X623024Y1051808D01*
X614755Y1057333D01*
X605000Y1059274D01*
D02*
G37*
%LPD*%
D10*
X2112000Y1616322D02*
D03*
Y1531678D02*
D03*
X1877000Y1616322D02*
D03*
Y1531678D02*
D03*
X1256000Y867322D02*
D03*
Y782678D02*
D03*
X1997000Y1616322D02*
D03*
Y1531678D02*
D03*
D11*
X1355265Y1504000D02*
D03*
X1445818D02*
D03*
X1791724Y1802246D02*
D03*
X1882276D02*
D03*
X1336724Y1694000D02*
D03*
X1427276D02*
D03*
D12*
X440000Y800276D02*
D03*
Y709724D02*
D03*
X770000Y709724D02*
D03*
Y800276D02*
D03*
D13*
X1129000Y286008D02*
D03*
Y411992D02*
D03*
D14*
X389000Y1013000D02*
D03*
X855000Y1017000D02*
D03*
X2214000Y2067000D02*
D03*
X191000Y452000D02*
D03*
X2084000Y513000D02*
D03*
X883000Y1898000D02*
D03*
X1424322Y1954000D02*
D03*
D15*
X1128008Y575000D02*
D03*
X1253992D02*
D03*
D16*
X1557000Y1339000D02*
D03*
X1727000Y1979000D02*
D03*
D17*
X605500Y1245660D02*
D03*
D18*
Y1046840D02*
D03*
D19*
X1424322Y1789000D02*
D03*
X1339678D02*
D03*
D20*
X1431000Y575000D02*
D03*
D21*
X655000Y803976D02*
D03*
X605000D02*
D03*
X555000D02*
D03*
X655000Y426024D02*
D03*
X605000D02*
D03*
X555000D02*
D03*
D22*
X1762204Y1617000D02*
D03*
Y1567000D02*
D03*
Y1667000D02*
D03*
Y1717000D02*
D03*
X1537796D02*
D03*
Y1667000D02*
D03*
Y1617000D02*
D03*
Y1567000D02*
D03*
D23*
X1762204D02*
X1841678D01*
X1739000D02*
X1762204D01*
X1327000Y1617000D02*
X1537796D01*
X1256000Y1546000D02*
X1327000Y1617000D01*
X1762204Y1667000D02*
X1946322D01*
X1739000D02*
X1762204D01*
X1537796Y1617000D02*
X1559387D01*
X1537796Y1717000D02*
X1559000D01*
X1513634D02*
X1537796D01*
X1424322Y1789000D02*
Y1954000D01*
Y1778173D02*
Y1789000D01*
Y1778173D02*
X1431960Y1770535D01*
X1460099D01*
X1513634Y1717000D01*
X1253992Y575000D02*
X1256000Y577008D01*
Y782678D01*
X600000Y1028784D02*
X605000Y1033784D01*
X1256000Y867322D02*
Y1546000D01*
X1128008Y575000D02*
X1129000Y574008D01*
Y411992D02*
Y574008D01*
X1010992Y411992D02*
X1129000D01*
X889000Y290000D02*
X1010992Y411992D01*
X595000Y290000D02*
X889000D01*
X1253992Y575000D02*
X1431000D01*
X1537796Y1667000D02*
X1624500D01*
X1674500Y1617000D02*
X1762204D01*
X1624500Y1667000D02*
X1674500Y1617000D01*
X1454276Y1667000D02*
X1537796D01*
X555000Y330000D02*
X595000Y290000D01*
X555000Y330000D02*
Y426024D01*
X1427276Y1694000D02*
X1454276Y1667000D01*
X1946322D02*
X1997000Y1616322D01*
X2112000D01*
X1877000Y1531678D02*
X1997000D01*
X1841678Y1567000D02*
X1877000Y1531678D01*
X1876322Y1617000D02*
X1877000Y1616322D01*
X1762204Y1617000D02*
X1876322D01*
D24*
X630000Y1540000D02*
D03*
X665000Y1470000D02*
D03*
X560000Y1540000D02*
D03*
X595000Y1470000D02*
D03*
%TF.MD5,9dc9d885fbad636108def8089e3fc7d9*%
M02*
